<svg width="64" height="64" viewBox="0 0 64 64" fill="none" xmlns="http://www.w3.org/2000/svg">
<path d="M31.9999 58.6668C17.2719 58.6668 5.33325 46.7282 5.33325 32.0002C5.33325 17.2722 17.2719 5.3335 31.9999 5.3335C46.7279 5.3335 58.6666 17.2722 58.6666 32.0002C58.6666 46.7282 46.7279 58.6668 31.9999 58.6668ZM31.9999 53.3335C37.6579 53.3335 43.0841 51.0859 47.0849 47.0851C51.0856 43.0843 53.3333 37.6581 53.3333 32.0002C53.3333 26.3422 51.0856 20.916 47.0849 16.9152C43.0841 12.9144 37.6579 10.6668 31.9999 10.6668C26.342 10.6668 20.9158 12.9144 16.915 16.9152C12.9142 20.916 10.6666 26.3422 10.6666 32.0002C10.6666 37.6581 12.9142 43.0843 16.915 47.0851C20.9158 51.0859 26.342 53.3335 31.9999 53.3335ZM18.6666 34.6668H23.9999C23.9999 36.7886 24.8428 38.8234 26.3431 40.3237C27.8434 41.824 29.8782 42.6668 31.9999 42.6668C34.1217 42.6668 36.1565 41.824 37.6568 40.3237C39.1571 38.8234 39.9999 36.7886 39.9999 34.6668H45.3333C45.3333 38.203 43.9285 41.5944 41.428 44.0949C38.9275 46.5954 35.5361 48.0002 31.9999 48.0002C28.4637 48.0002 25.0723 46.5954 22.5718 44.0949C20.0713 41.5944 18.6666 38.203 18.6666 34.6668ZM21.3333 29.3335C20.2724 29.3335 19.255 28.9121 18.5048 28.1619C17.7547 27.4118 17.3333 26.3944 17.3333 25.3335C17.3333 24.2726 17.7547 23.2552 18.5048 22.5051C19.255 21.7549 20.2724 21.3335 21.3333 21.3335C22.3941 21.3335 23.4115 21.7549 24.1617 22.5051C24.9118 23.2552 25.3333 24.2726 25.3333 25.3335C25.3333 26.3944 24.9118 27.4118 24.1617 28.1619C23.4115 28.9121 22.3941 29.3335 21.3333 29.3335ZM42.6666 29.3335C41.6057 29.3335 40.5883 28.9121 39.8382 28.1619C39.088 27.4118 38.6666 26.3944 38.6666 25.3335C38.6666 24.2726 39.088 23.2552 39.8382 22.5051C40.5883 21.7549 41.6057 21.3335 42.6666 21.3335C43.7275 21.3335 44.7449 21.7549 45.495 22.5051C46.2452 23.2552 46.6666 24.2726 46.6666 25.3335C46.6666 26.3944 46.2452 27.4118 45.495 28.1619C44.7449 28.9121 43.7275 29.3335 42.6666 29.3335Z" fill="#EC3D31"/>
</svg>
