<svg width="64" height="64" viewBox="0 0 64 64" fill="none" xmlns="http://www.w3.org/2000/svg">
<path d="M32 58.6665C28.8483 58.6665 25.7274 58.0458 22.8156 56.8396C19.9038 55.6335 17.2581 53.8657 15.0295 51.6371C12.8009 49.4085 11.033 46.7627 9.82692 43.8509C8.6208 40.9391 8.00002 37.8183 8.00002 34.6665C8.00002 31.5148 8.6208 28.3939 9.82692 25.4821C11.033 22.5703 12.8009 19.9246 15.0295 17.696C17.2581 15.4674 19.9038 13.6995 22.8156 12.4934C25.7274 11.2873 28.8483 10.6665 32 10.6665C38.3652 10.6665 44.4697 13.1951 48.9706 17.696C53.4715 22.1968 56 28.3013 56 34.6665C56 41.0317 53.4715 47.1362 48.9706 51.6371C44.4697 56.138 38.3652 58.6665 32 58.6665ZM32 53.3332C34.4514 53.3332 36.8787 52.8504 39.1435 51.9123C41.4082 50.9742 43.466 49.5992 45.1994 47.8659C46.9327 46.1325 48.3077 44.0747 49.2458 41.81C50.1839 39.5452 50.6667 37.1179 50.6667 34.6665C50.6667 32.2152 50.1839 29.7878 49.2458 27.5231C48.3077 25.2584 46.9327 23.2006 45.1994 21.4672C43.466 19.7338 41.4082 18.3589 39.1435 17.4208C36.8787 16.4827 34.4514 15.9999 32 15.9999C27.0493 15.9999 22.3014 17.9665 18.8007 21.4672C15.3 24.9679 13.3334 29.7158 13.3334 34.6665C13.3334 39.6172 15.3 44.3652 18.8007 47.8659C22.3014 51.3665 27.0493 53.3332 32 53.3332ZM34.6667 34.6665H42.6667V39.9999H29.3334V21.3332H34.6667V34.6665ZM4.65869 16.7519L14.0854 7.3252L17.8587 11.0959L8.42669 20.5252L4.65869 16.7519ZM49.912 7.3252L59.3414 16.7519L55.5707 20.5252L46.1414 11.0959L49.9147 7.3252H49.912Z" fill="#EC3D31"/>
</svg>
