<svg width="64" height="64" viewBox="0 0 64 64" fill="none" xmlns="http://www.w3.org/2000/svg">
<path d="M53.1681 21.3332H56.0001C57.4146 21.3332 58.7711 21.8951 59.7713 22.8953C60.7715 23.8955 61.3334 25.2521 61.3334 26.6666V37.3332C61.3334 38.7477 60.7715 40.1043 59.7713 41.1045C58.7711 42.1047 57.4146 42.6666 56.0001 42.6666H53.1681C52.518 47.822 50.0088 52.563 46.1114 55.9999C42.214 59.4367 37.1964 61.3331 32.0001 61.3332V55.9999C36.2435 55.9999 40.3132 54.3142 43.3138 51.3136C46.3144 48.313 48.0001 44.2434 48.0001 39.9999V23.9999C48.0001 19.7564 46.3144 15.6868 43.3138 12.6862C40.3132 9.68561 36.2435 7.9999 32.0001 7.9999C27.7566 7.9999 23.687 9.68561 20.6864 12.6862C17.6858 15.6868 16.0001 19.7564 16.0001 23.9999V42.6666H8.00008C6.58559 42.6666 5.22904 42.1047 4.22885 41.1045C3.22865 40.1043 2.66675 38.7477 2.66675 37.3332V26.6666C2.66675 25.2521 3.22865 23.8955 4.22885 22.8953C5.22904 21.8951 6.58559 21.3332 8.00008 21.3332H10.8321C11.4828 16.1783 13.9923 11.438 17.8896 8.0017C21.7869 4.56544 26.8042 2.66943 32.0001 2.66943C37.1959 2.66943 42.2132 4.56544 46.1105 8.0017C50.0079 11.438 52.5173 16.1783 53.1681 21.3332ZM8.00008 26.6666V37.3332H10.6667V26.6666H8.00008ZM53.3334 26.6666V37.3332H56.0001V26.6666H53.3334ZM20.6934 42.0932L23.5201 37.5706C26.0616 39.1627 29.0011 40.0047 32.0001 39.9999C34.9991 40.0047 37.9385 39.1627 40.4801 37.5706L43.3067 42.0932C39.9181 44.2163 35.9989 45.3394 32.0001 45.3332C28.0013 45.3394 24.0821 44.2163 20.6934 42.0932Z" fill="#EC3D31"/>
</svg>
