<svg width="64" height="64" viewBox="0 0 64 64" fill="none" xmlns="http://www.w3.org/2000/svg">
<g clip-path="url(#clip0_137_723)">
<path d="M29.4208 55.1443C25.7832 57.9164 21.2002 59.1444 16.6639 58.5625C13.8918 54.9249 12.6638 50.3419 13.2457 45.8056L18.465 48.819C18.5658 50.3829 18.9741 51.9211 19.6759 53.3456C21.2591 53.2435 22.7967 52.8256 24.2038 52.1323L29.4208 55.1443ZM42.1163 46.4776L43.7111 54.382L41.1418 58.8322L4.19139 37.4989L6.76072 33.0487L14.4035 30.4776L22.1435 17.0716C26.7875 9.02792 36.5223 5.52152 46.0599 7.64713C52.6696 14.8442 54.5003 25.0279 49.8563 33.0716L42.1163 46.4776ZM37.5038 50.5734L36.4909 45.5546L45.2375 30.4049C48.3282 25.0517 47.5184 18.0809 43.2266 12.5546C36.2947 11.6009 29.8543 14.3827 26.7623 19.7382L18.0157 34.8879L13.1627 36.5201L37.5038 50.5734ZM33.3333 29.6904C32.1083 28.9831 31.2144 27.8182 30.8483 26.4519C30.4822 25.0856 30.6739 23.6299 31.3811 22.4049C32.0884 21.1799 33.2533 20.2861 34.6196 19.92C35.9858 19.5539 37.4416 19.7455 38.6666 20.4528C39.8916 21.16 40.7854 22.3249 41.1515 23.6912C41.5176 25.0575 41.326 26.5132 40.6187 27.7382C39.9115 28.9632 38.7466 29.8571 37.3803 30.2232C36.014 30.5893 34.5582 30.3976 33.3333 29.6904Z" fill="#EC3D31"/>
</g>
<defs>
<clipPath id="clip0_137_723">
<rect width="64" height="64" fill="white"/>
</clipPath>
</defs>
</svg>
