<svg width="25" height="24" viewBox="0 0 25 24" fill="none" xmlns="http://www.w3.org/2000/svg">
<path d="M2.45809 6.85399L11.7051 1.30999C11.8605 1.21674 12.0383 1.16748 12.2196 1.16748C12.4008 1.16748 12.5787 1.21674 12.7341 1.30999L21.9721 6.85499C22.0462 6.8994 22.1076 6.96227 22.1501 7.03746C22.1927 7.11264 22.2151 7.19758 22.2151 7.28399V20C22.2151 20.2652 22.1097 20.5196 21.9222 20.7071C21.7347 20.8946 21.4803 21 21.2151 21H3.21509C2.94987 21 2.69552 20.8946 2.50798 20.7071C2.32044 20.5196 2.21509 20.2652 2.21509 20V7.28299C2.21507 7.19658 2.23745 7.11164 2.28003 7.03646C2.32262 6.96127 2.38397 6.8984 2.45809 6.85399ZM4.21509 8.13299V19H20.2151V8.13199L12.2191 3.33199L4.21509 8.13199V8.13299ZM12.2751 13.698L17.5711 9.23499L18.8591 10.765L12.2891 16.302L5.57909 10.772L6.85109 9.22799L12.2751 13.698Z" fill="#EC3D31"/>
</svg>
