<svg width="25" height="24" viewBox="0 0 25 24" fill="none" xmlns="http://www.w3.org/2000/svg">
<path d="M9.58109 10.682C10.5194 12.3305 11.8846 13.6957 13.5331 14.634L14.4171 13.396C14.5592 13.1969 14.7694 13.0569 15.0079 13.0023C15.2463 12.9478 15.4965 12.9825 15.7111 13.1C17.1254 13.8729 18.6873 14.3378 20.2941 14.464C20.5449 14.4839 20.7789 14.5975 20.9496 14.7823C21.1203 14.9671 21.2151 15.2094 21.2151 15.461V19.923C21.2151 20.1706 21.1233 20.4094 20.9575 20.5932C20.7916 20.777 20.5634 20.8927 20.3171 20.918C19.7871 20.973 19.2531 21 18.7151 21C10.1551 21 3.21509 14.06 3.21509 5.5C3.21509 4.962 3.24209 4.428 3.29709 3.898C3.32234 3.6517 3.43807 3.42352 3.62188 3.25763C3.80568 3.09175 4.04449 2.99995 4.29209 3H8.75409C9.00565 2.99997 9.24798 3.09475 9.43277 3.26545C9.61755 3.43615 9.73121 3.67022 9.75109 3.921C9.87731 5.52779 10.3422 7.08968 11.1151 8.504C11.2326 8.71856 11.2673 8.96874 11.2128 9.2072C11.1582 9.44565 11.0182 9.65584 10.8191 9.798L9.58109 10.682ZM7.05909 10.025L8.95909 8.668C8.41987 7.50409 8.05044 6.26884 7.86209 5H5.22509C5.21909 5.166 5.21609 5.333 5.21609 5.5C5.21509 12.956 11.2591 19 18.7151 19C18.8821 19 19.0491 18.997 19.2151 18.99V16.353C17.9462 16.1646 16.711 15.7952 15.5471 15.256L14.1901 17.156C13.6438 16.9437 13.1131 16.6931 12.6021 16.406L12.5441 16.373C10.5827 15.2567 8.95837 13.6324 7.84209 11.671L7.80909 11.613C7.522 11.102 7.27137 10.5713 7.05909 10.025Z" fill="#EC3D31"/>
</svg>
