<svg width="24" height="25" viewBox="0 0 24 25" fill="none" xmlns="http://www.w3.org/2000/svg">
<path d="M8.66992 13.2672L10.0972 17.3194C10.0972 17.3194 10.2756 17.6986 10.4667 17.6986C10.6578 17.6986 13.4997 14.6658 13.4997 14.6658L16.6601 8.4043L8.72085 12.2212L8.66992 13.2672Z" fill="#C8DAEA"/>
<path d="M10.563 14.3062L10.289 17.2931C10.289 17.2931 10.1743 18.2083 11.0663 17.2931C11.9583 16.3778 12.8122 15.6721 12.8122 15.6721" fill="#A9C6D8"/>
<path d="M8.69621 13.4117L5.76031 12.4305C5.76031 12.4305 5.40943 12.2845 5.52241 11.9534C5.54567 11.8851 5.59259 11.827 5.73294 11.7271C6.38346 11.262 17.7735 7.0626 17.7735 7.0626C17.7735 7.0626 18.0951 6.95144 18.2848 7.02538C18.3317 7.04028 18.3739 7.06769 18.4071 7.10482C18.4403 7.14195 18.4633 7.18746 18.4737 7.2367C18.4942 7.32366 18.5028 7.41313 18.4992 7.50252C18.4983 7.57985 18.4892 7.65153 18.4823 7.76393C18.4129 8.91206 16.3369 17.481 16.3369 17.481C16.3369 17.481 16.2127 17.9824 15.7677 17.9996C15.6583 18.0032 15.5494 17.9842 15.4473 17.9437C15.3453 17.9032 15.2522 17.842 15.1737 17.7639C14.3005 16.9933 11.2821 14.9126 10.6152 14.455C10.6001 14.4445 10.5875 14.4308 10.578 14.4148C10.5686 14.3988 10.5626 14.381 10.5604 14.3624C10.5511 14.3142 10.6023 14.2545 10.6023 14.2545C10.6023 14.2545 15.8579 9.46243 15.9978 8.95937C16.0086 8.92039 15.9677 8.90116 15.9128 8.91823C15.5637 9.04996 9.51244 12.9699 8.84458 13.4025C8.79651 13.4174 8.74569 13.4206 8.69621 13.4117Z" fill="white"/>
</svg>
