<svg width="24" height="25" viewBox="0 0 24 25" fill="none" xmlns="http://www.w3.org/2000/svg">
<path fill-rule="evenodd" clip-rule="evenodd" d="M19.6329 8.17713C19.7441 7.78681 19.6329 7.5 19.1035 7.5H17.3531C16.908 7.5 16.7029 7.74776 16.5916 8.02097C16.5916 8.02097 15.7014 10.3043 14.4404 11.7875C14.0325 12.2169 13.847 12.3535 13.6245 12.3535C13.5132 12.3535 13.3521 12.2169 13.3521 11.8266V8.17714C13.3521 7.70875 13.223 7.5 12.8521 7.5H10.1014C9.82329 7.5 9.65602 7.71739 9.65602 7.92342C9.65602 8.36744 10.2865 8.46984 10.3515 9.71887V12.4316C10.3515 13.0263 10.2494 13.1341 10.0269 13.1341C9.43349 13.1341 7.99005 10.8406 7.13395 8.21615C6.96618 7.70605 6.79791 7.5 6.35055 7.5H4.60014C4.10003 7.5 4 7.74776 4 8.02097C4 8.50888 4.59343 10.9289 6.76309 14.1294C8.20953 16.3152 10.2475 17.5 12.1019 17.5C13.2145 17.5 13.3522 17.2368 13.3522 16.7836V15.1316C13.3522 14.6053 13.4576 14.5002 13.8099 14.5002C14.0695 14.5002 14.5146 14.6368 15.5531 15.6907C16.7399 16.9397 16.9356 17.5 17.6032 17.5H19.3536C19.8537 17.5 20.1037 17.2368 19.9595 16.7175C19.8016 16.1999 19.235 15.449 18.4831 14.5588C18.0751 14.0514 17.4632 13.5049 17.2777 13.2317C17.0181 12.8804 17.0923 12.7243 17.2777 12.412C17.2777 12.412 19.4103 9.25048 19.6329 8.17713Z" fill="white"/>
</svg>
